<svg xmlns="http://www.w3.org/2000/svg" viewBox="0 0 24 24" fill="#ffffff">
  <path d="M12 .5C5.65.5.5 5.65.5 12c0 5.08 3.29 9.38 7.85 10.9.57.1.78-.25.78-.56v-2c-3.19.7-3.86-1.54-3.86-1.54-.52-1.3-1.27-1.65-1.27-1.65-1.03-.7.08-.68.08-.68 1.14.08 1.74 1.17 1.74 1.17 1.02 1.75 2.66 1.25 3.32.96.1-.75.4-1.26.73-1.55-2.55-.29-5.23-1.28-5.23-5.7 0-1.26.45-2.3 1.17-3.11-.12-.3-.51-1.52.1-3.17 0 0 .96-.3 3.15 1.18a10.97 10.97 0 0 1 5.74 0c2.19-1.48 3.15-1.18 3.15-1.18.61 1.65.22 2.87.11 3.17.73.8 1.17 1.85 1.17 3.11 0 4.43-2.69 5.41-5.26 5.69.41.35.78 1.03.78 2.07v3.07c0 .31.21.67.79.56A10.53 10.53 0 0 0 23.5 12C23.5 5.65 18.35.5 12 .5Z"/>
</svg>